<svg xmlns="http://www.w3.org/2000/svg" xmlns:xlink="http://www.w3.org/1999/xlink" width="94" height="94" viewBox="0 0 94 94">
  <defs>
    <linearGradient id="linear-gradient" x1="0.117" y1="0.163" x2="0.786" y2="0.924" gradientUnits="objectBoundingBox">
      <stop offset="0" stop-color="#0c3dab"/>
      <stop offset="0.931" stop-color="#061f57"/>
      <stop offset="1" stop-color="#061f56"/>
    </linearGradient>
  </defs>
  <g id="Groupe_897" data-name="Groupe 897" transform="translate(-10644.99 698.174)">
    <rect id="Rectangle_2211" data-name="Rectangle 2211" width="93.687" height="93.996" transform="translate(10644.99 -698.174)" fill="#fff"/>
    <g id="Groupe_896" data-name="Groupe 896" transform="translate(10644.99 -697.959)">
      <g id="Groupe_2" data-name="Groupe 2" transform="translate(0 0)">
        <path id="Soustraction_4" data-name="Soustraction 4" d="M-9165.01,863h-93.982V820.367h0a10.522,10.522,0,0,0,7.075-2.71,4.765,4.765,0,0,0,1.741,1.706,6.387,6.387,0,0,0,2.5.772,11.883,11.883,0,0,0-.883,4.491,13.415,13.415,0,0,0,13.927,12.789,13.414,13.414,0,0,0,13.923-12.789,11.463,11.463,0,0,0-.074-1.32h.066a4.611,4.611,0,0,0,1.345-.17,4.354,4.354,0,0,0,1.567-.889,20.816,20.816,0,0,0,7.483,7.283,21.2,21.2,0,0,0,10.5,2.769,20.956,20.956,0,0,0,14.767-5.994,20.1,20.1,0,0,0,6.121-14.468,20.118,20.118,0,0,0-6.119-14.468,20.961,20.961,0,0,0-14.769-5.994,20.963,20.963,0,0,0-14.767,5.994,20.1,20.1,0,0,0-6.118,14.469,20.169,20.169,0,0,0,2.684,10.044l-2.839.853a12.533,12.533,0,0,0-4.638-7.754,14.664,14.664,0,0,0-9.131-3.134,13.992,13.992,0,0,0-12.819,7.783l-3.958-2.463a10.182,10.182,0,0,0,2.825-6.256,8.854,8.854,0,0,0,1,.059,4.723,4.723,0,0,0,1.713-.273,4.569,4.569,0,0,0,2.087-1.983,8.518,8.518,0,0,0,4.8,1.427,7.393,7.393,0,0,0,7.831-6.821A7.391,7.391,0,0,0-9239,796.5a7.394,7.394,0,0,0-7.833,6.821,6.489,6.489,0,0,0,2.7,5.149l-4.438,1.741v-.072a10.351,10.351,0,0,0-10.442-10.231V769.215h93.982V863Z" transform="translate(9259.01 -769.215)" fill="url(#linear-gradient)"/>
      </g>
      <path id="Soustraction_1" data-name="Soustraction 1" d="M14.941,44.224h0a5.179,5.179,0,0,1-2.2-.625,6.47,6.47,0,0,1-1.73-1.744,5.431,5.431,0,0,0,.7-1.671,22.381,22.381,0,0,0,.653-6.268,115.117,115.117,0,0,0-1.165-12.56c-.25-1.915-.448-3.42-.448-4.027,0-1.6.439-1.647.49-1.647h0v-2.2c-.031-.027-.754-.661-.817-1.123a1.773,1.773,0,0,1,.322-1.026L11.01,9.55,0,9.132,24.1.934,47.331,0,32.5,6.151v.018c.254.607,2.495,5.96,2.812,7.319.229,1.305.292,5.683.292,5.726A10.691,10.691,0,0,1,33.2,20.721,19.279,19.279,0,0,1,30.062,21.9a25.708,25.708,0,0,1-4.544.833h-.578A22.012,22.012,0,0,1,20,22.181a19.687,19.687,0,0,1-3.62-1.206,13.724,13.724,0,0,1-3-1.762ZM11.7,9.759a3.262,3.262,0,0,0-.279,1.33.943.943,0,0,0,.335.693,1.094,1.094,0,0,1,.335.551,1.822,1.822,0,0,1-.126,1.107v2.178l.691.958V11.62l.563-1.86Z" transform="translate(43.949 0.038) rotate(18)" fill="#020202"/>
      <path id="Soustraction_2" data-name="Soustraction 2" d="M5.879,0h0a2.007,2.007,0,0,0-.864.25,2.572,2.572,0,0,0-.68.7,2.2,2.2,0,0,1,.275.671,9.127,9.127,0,0,1,.257,2.52,46.958,46.958,0,0,1-.457,5.04c-.1.767-.18,1.374-.18,1.62,0,.641.18.659.193.659h0v.882c-.013.011-.3.265-.322.45a.72.72,0,0,0,.128.412l.1.72L0,14.061l9.481,3.283,9.138.374-5.838-2.464h0c.1-.243.981-2.389,1.107-2.932.09-.522.115-2.277.115-2.3a4.2,4.2,0,0,0-.947-.6,7.5,7.5,0,0,0-1.235-.472,9.948,9.948,0,0,0-1.788-.333H9.807a8.508,8.508,0,0,0-1.937.2,7.645,7.645,0,0,0-1.428.486,5.382,5.382,0,0,0-1.179.706ZM4.6,13.809a1.327,1.327,0,0,1-.11-.54.382.382,0,0,1,.131-.277.439.439,0,0,0,.131-.211.742.742,0,0,0-.05-.443v-.877l.272-.383v1.98L5.2,13.8Z" transform="translate(32.395 34.197) rotate(162)"/>
    </g>
    <g id="Union_94" data-name="Union 94" transform="translate(10701.156 -676.822) rotate(-12.095)">
      <path id="Tracé_471" data-name="Tracé 471" d="M.587,3.024a.73.73,0,0,1-.568-.213,4.688,4.688,0,0,1,.4-.652l.317-.45H.783l.389,1.057C1.174,2.82.978,3.024.587,3.024Zm13.542-.21c-.391,0-.587-.2-.587-.252l.1-.845h.162l.73.424a1.132,1.132,0,0,1,.181.425A.64.64,0,0,1,14.129,2.814ZM.842,1.268.181.884A1.131,1.131,0,0,1,0,.459.64.64,0,0,1,.587.21c.391,0,.587.2.587.252Zm13.294-.181-.576-.8a.09.09,0,0,1-.018-.035c0-.048.2-.252.587-.252A.73.73,0,0,1,14.7.213a4.691,4.691,0,0,1-.4.652Z" transform="translate(0.902 0.902)" fill="#fff"/>
      <path id="Tracé_472" data-name="Tracé 472" d="M1.489,4.828A1.354,1.354,0,0,1,0,3.674,3.077,3.077,0,0,1,.587,2.541L.553,2.519A1.746,1.746,0,0,1,0,1.365,1.354,1.354,0,0,1,1.489.21,1.354,1.354,0,0,1,2.978,1.365a.919.919,0,0,1-.07.351H13.73a.956.956,0,0,1-.188-.562A1.354,1.354,0,0,1,15.031,0,1.354,1.354,0,0,1,16.52,1.154a3.077,3.077,0,0,1-.587,1.132l.034.022a1.746,1.746,0,0,1,.553,1.154,1.354,1.354,0,0,1-1.489,1.154,1.354,1.354,0,0,1-1.489-1.154.91.91,0,0,1,.006-.108H2.921a.916.916,0,0,1,.057.318A1.354,1.354,0,0,1,1.489,4.828Z" transform="translate(0 0)" fill="#fff"/>
    </g>
    <g id="Union_96" data-name="Union 96" transform="matrix(0.778, 0.628, -0.628, 0.778, 10704.838, -683.022)">
      <path id="Tracé_473" data-name="Tracé 473" d="M14.111,2.815c-.392,0-.587-.2-.587-.253l.3-.824.689.4a1.134,1.134,0,0,1,.181.424.237.237,0,0,1-.086.1A.831.831,0,0,1,14.111,2.815Zm-13.524,0A.73.73,0,0,1,.019,2.6a4.689,4.689,0,0,1,.4-.652L.74,1.5H.782l.39,1.058c0,.011-.015.054-.085.109A.831.831,0,0,1,.587,2.815Zm13.372-1.5L13.526.261c0-.056.193-.26.585-.26a.731.731,0,0,1,.568.213,4.692,4.692,0,0,1-.4.652ZM.842,1.058.181.674A1.135,1.135,0,0,1,0,.25a.237.237,0,0,1,.086-.1A.83.83,0,0,1,.587,0c.392,0,.587.2.587.252Z" transform="translate(0.903 0.902)" fill="#fff"/>
      <path id="Tracé_474" data-name="Tracé 474" d="M15.013,4.62h0a1.355,1.355,0,0,1-1.49-1.155.916.916,0,0,1,.057-.318H2.922a.915.915,0,0,1,.057.318A1.355,1.355,0,0,1,1.49,4.62,1.355,1.355,0,0,1,0,3.465,3.077,3.077,0,0,1,.588,2.332L.553,2.31A1.747,1.747,0,0,1,0,1.155,1.355,1.355,0,0,1,1.49,0h0a1.355,1.355,0,0,1,1.49,1.155.92.92,0,0,1-.07.352H13.594a.92.92,0,0,1-.07-.352A1.355,1.355,0,0,1,15.013,0,1.355,1.355,0,0,1,16.5,1.155a3.078,3.078,0,0,1-.588,1.133l.034.022A1.747,1.747,0,0,1,16.5,3.465,1.355,1.355,0,0,1,15.013,4.62Z" transform="translate(0 0)" fill="#fff"/>
    </g>
  </g>
</svg>
